<svg id="visual" viewBox="0 0 1920 1080" width="1920" height="1080" xmlns="http://www.w3.org/2000/svg" xmlns:xlink="http://www.w3.org/1999/xlink" version="1.1"><rect x="0" y="0" width="1920" height="1080" fill="#070707"></rect><path d="M0 969L53.3 965.3C106.7 961.7 213.3 954.3 320 962.3C426.7 970.3 533.3 993.7 640 1005C746.7 1016.3 853.3 1015.7 960 1001.2C1066.7 986.7 1173.3 958.3 1280 956.2C1386.7 954 1493.3 978 1600 984.5C1706.7 991 1813.3 980 1866.7 974.5L1920 969L1920 1081L1866.7 1081C1813.3 1081 1706.7 1081 1600 1081C1493.3 1081 1386.7 1081 1280 1081C1173.3 1081 1066.7 1081 960 1081C853.3 1081 746.7 1081 640 1081C533.3 1081 426.7 1081 320 1081C213.3 1081 106.7 1081 53.3 1081L0 1081Z" fill="#5a5837" stroke-linecap="round" stroke-linejoin="miter"></path></svg>