<svg id="visual" viewBox="0 0 1920 1080" width="1920" height="1080" xmlns="http://www.w3.org/2000/svg" xmlns:xlink="http://www.w3.org/1999/xlink" version="1.1"><rect x="0" y="0" width="1920" height="1080" fill="#070707"></rect><path d="M0 803L53.3 811.8C106.7 820.7 213.3 838.3 320 842.7C426.7 847 533.3 838 640 824C746.7 810 853.3 791 960 787.2C1066.7 783.3 1173.3 794.7 1280 802.5C1386.7 810.3 1493.3 814.7 1600 826.8C1706.7 839 1813.3 859 1866.7 869L1920 879L1920 1081L1866.7 1081C1813.3 1081 1706.7 1081 1600 1081C1493.3 1081 1386.7 1081 1280 1081C1173.3 1081 1066.7 1081 960 1081C853.3 1081 746.7 1081 640 1081C533.3 1081 426.7 1081 320 1081C213.3 1081 106.7 1081 53.3 1081L0 1081Z" fill="#c9c24f" stroke-linecap="round" stroke-linejoin="miter"></path></svg>